<?xml version="1.0" standalone="no"?>
<!DOCTYPE svg PUBLIC "-//W3C//DTD SVG 20010904//EN"
 "http://www.w3.org/TR/2001/REC-SVG-20010904/DTD/svg10.dtd">
<svg version="1.0" xmlns="http://www.w3.org/2000/svg"
 width="512.000000pt" height="512.000000pt" viewBox="0 0 512.000000 512.000000"
 preserveAspectRatio="xMidYMid meet">

<g transform="translate(0.000000,512.000000) scale(0.100000,-0.100000)"
fill="#000000" stroke="none">
<path d="M1295 4749 c-621 -48 -1131 -508 -1267 -1142 -17 -82 -21 -137 -22
-282 -1 -229 13 -316 59 -362 62 -62 158 -49 200 29 18 34 18 43 7 145 -30
275 5 496 114 716 195 396 585 640 1019 640 193 0 350 -38 522 -127 120 -62
171 -103 382 -303 128 -122 192 -175 216 -182 67 -18 92 -2 299 193 241 227
348 300 530 362 223 76 499 76 722 0 216 -73 415 -221 557 -414 178 -243 259
-569 216 -879 -18 -134 -69 -314 -120 -425 l-12 -28 -427 0 c-500 0 -453 11
-554 -134 -34 -49 -66 -89 -71 -89 -6 0 -72 119 -148 264 -76 145 -145 271
-154 281 -21 24 -85 42 -116 34 -62 -15 -79 -45 -273 -460 -104 -223 -192
-402 -195 -398 -4 4 -63 268 -133 587 -69 319 -134 600 -142 623 -20 53 -62
82 -119 82 -85 0 -81 6 -320 -508 -121 -259 -223 -467 -228 -463 -4 4 -65 117
-135 251 -77 147 -137 251 -153 262 -14 11 -43 22 -65 25 -62 8 -96 -23 -219
-200 l-110 -157 -435 0 c-419 0 -436 -1 -468 -20 -35 -21 -62 -72 -62 -114 0
-14 20 -63 43 -108 131 -250 374 -564 671 -867 352 -359 685 -631 1131 -924
189 -124 470 -286 499 -289 64 -4 93 9 305 135 478 283 943 642 1319 1017 145
144 348 370 399 444 64 92 8 206 -102 206 -20 0 -45 -5 -55 -10 -11 -6 -59
-56 -107 -113 -157 -183 -295 -328 -438 -460 -366 -339 -792 -656 -1198 -890
l-97 -56 -113 65 c-747 438 -1425 1037 -1841 1631 -31 44 -56 83 -56 87 0 3
155 6 345 6 275 0 353 3 379 14 25 10 54 43 109 120 l74 106 133 -254 c73
-140 140 -267 150 -283 24 -40 82 -67 126 -59 69 13 81 34 280 461 104 223
191 405 194 405 3 0 63 -267 134 -593 71 -325 137 -611 146 -634 30 -68 115
-95 182 -56 33 20 49 51 318 630 85 182 159 328 164 323 4 -4 65 -117 135
-251 83 -159 136 -250 155 -263 37 -28 105 -28 143 0 15 11 77 91 138 177
l109 157 429 0 c378 0 433 2 464 16 44 21 54 37 114 180 55 129 100 278 126
418 24 129 24 419 -1 541 -89 448 -360 816 -745 1014 -400 205 -872 205 -1272
0 -133 -68 -233 -144 -385 -290 -68 -65 -128 -119 -134 -119 -6 0 -65 53 -133
118 -138 133 -214 193 -319 255 -243 143 -526 208 -813 186z"/>
</g>
</svg>
