<?xml version="1.0" standalone="no"?>
<!DOCTYPE svg PUBLIC "-//W3C//DTD SVG 20010904//EN"
 "http://www.w3.org/TR/2001/REC-SVG-20010904/DTD/svg10.dtd">
<svg version="1.0" xmlns="http://www.w3.org/2000/svg"
 width="400.000000pt" height="400.000000pt" viewBox="0 0 400.000000 400.000000"
 preserveAspectRatio="xMidYMid meet">

<g transform="translate(0.000000,400.000000) scale(0.100000,-0.100000)"
fill="#000000" stroke="none">
<path d="M1095 3514 c-195 -26 -298 -56 -413 -119 -91 -50 -135 -84 -215 -163
-218 -214 -331 -537 -298 -854 56 -542 385 -1007 1033 -1461 232 -162 732
-437 795 -437 80 0 617 301 883 496 l46 33 319 3 c307 3 322 4 378 26 73 30
149 103 185 179 27 58 27 59 30 326 4 298 -2 348 -49 423 l-31 48 26 90 c15
50 34 150 43 221 33 258 -18 506 -150 727 -50 84 -155 199 -240 264 -79 60
-239 136 -344 163 -356 94 -783 -10 -1040 -252 l-53 -50 -54 51 c-131 124
-344 228 -543 266 -83 16 -257 27 -308 20z m310 -293 c178 -47 345 -152 460
-292 52 -63 72 -79 100 -85 73 -13 99 0 174 90 109 130 229 212 386 265 229
76 449 64 655 -37 58 -28 95 -57 165 -127 126 -126 189 -253 216 -437 19 -132
1 -333 -40 -441 l-11 -27 -893 0 -894 1 -59 -22 c-74 -28 -154 -102 -191 -178
l-28 -56 -3 -278 c-3 -226 -1 -287 12 -330 31 -105 112 -194 216 -234 39 -15
96 -18 410 -23 l365 -5 -70 -41 c-39 -23 -139 -79 -222 -124 l-153 -82 -161
87 c-669 360 -1082 725 -1280 1130 -172 352 -171 688 3 957 100 155 260 261
458 304 91 19 281 12 385 -15z m454 -1636 c39 -157 71 -289 71 -295 0 -6 -34
-10 -85 -10 -78 0 -88 2 -110 25 l-25 24 0 244 c0 179 3 247 13 259 12 15 46
37 58 38 4 0 39 -128 78 -285z m423 15 c37 -146 70 -277 73 -292 l7 -28 -76 0
-75 0 -10 38 c-41 153 -131 524 -131 537 0 13 12 15 73 13 l72 -3 67 -265z
m428 0 c37 -146 70 -278 74 -293 l7 -28 -78 3 -77 3 -66 265 c-37 146 -70 278
-74 293 l-7 28 78 -3 77 -3 66 -265z m819 255 c16 -8 31 -22 35 -30 3 -9 6
-124 6 -256 l0 -240 -25 -24 -24 -25 -228 0 -228 0 -69 278 c-38 152 -71 285
-74 295 -4 16 15 17 287 17 237 0 297 -3 320 -15z"/>
<path d="M2779 3067 c-22 -15 -39 -38 -49 -65 -13 -37 -13 -47 0 -84 18 -50
67 -88 115 -88 63 0 136 -30 185 -76 60 -56 96 -136 113 -251 16 -103 27 -127
70 -153 61 -38 140 -18 177 43 41 67 15 250 -56 396 -46 93 -154 206 -235 245
-125 60 -259 74 -320 33z"/>
</g>
</svg>
