<svg width="50px" height="50px" xmlns="http://www.w3.org/2000/svg">
    <path style=" stroke:none;fill-rule:nonzero;fill:rgb(0%,0%,0%);fill-opacity:1;" d="M 13.6875 6.074219 C 11.25 6.398438 9.960938 6.773438 8.523438 7.5625 C 7.386719 8.1875 6.835938 8.613281 5.835938 9.601562 C 3.113281 12.273438 1.699219 16.3125 2.113281 20.273438 C 2.8125 27.050781 6.925781 32.863281 15.023438 38.539062 C 17.925781 40.5625 24.175781 44 24.960938 44 C 25.960938 44 32.675781 40.238281 36 37.800781 L 36.574219 37.386719 L 40.5625 37.351562 C 44.398438 37.3125 44.585938 37.300781 45.289062 37.023438 C 46.199219 36.648438 47.148438 35.738281 47.601562 34.789062 C 47.9375 34.0625 47.9375 34.050781 47.976562 30.710938 C 48.023438 26.988281 47.949219 26.363281 47.363281 25.425781 L 46.976562 24.824219 L 47.300781 23.699219 C 47.488281 23.074219 47.726562 21.824219 47.835938 20.9375 C 48.25 17.710938 47.613281 14.613281 45.960938 11.851562 C 45.335938 10.800781 44.023438 9.363281 42.960938 8.550781 C 41.976562 7.800781 39.976562 6.851562 38.664062 6.511719 C 34.210938 5.335938 28.875 6.636719 25.664062 9.664062 L 25 10.289062 L 24.324219 9.648438 C 22.6875 8.101562 20.023438 6.800781 17.539062 6.324219 C 16.5 6.125 14.324219 5.988281 13.6875 6.074219 Z M 17.5625 9.738281 C 19.789062 10.324219 21.875 11.636719 23.3125 13.386719 C 23.960938 14.175781 24.210938 14.375 24.5625 14.449219 C 25.476562 14.613281 25.800781 14.449219 26.738281 13.324219 C 28.101562 11.699219 29.601562 10.675781 31.5625 10.011719 C 34.425781 9.0625 37.175781 9.210938 39.75 10.476562 C 40.476562 10.824219 40.9375 11.1875 41.8125 12.0625 C 43.386719 13.636719 44.175781 15.226562 44.511719 17.523438 C 44.75 19.175781 44.523438 21.6875 44.011719 23.039062 L 43.875 23.375 L 32.710938 23.375 L 21.539062 23.363281 L 20.800781 23.636719 C 19.875 23.988281 18.875 24.914062 18.414062 25.863281 L 18.0625 26.5625 L 18.023438 30.039062 C 17.988281 32.863281 18.011719 33.625 18.175781 34.164062 C 18.5625 35.476562 19.574219 36.585938 20.875 37.085938 C 21.363281 37.273438 22.074219 37.3125 26 37.375 L 30.5625 37.4375 L 29.6875 37.949219 C 29.199219 38.238281 27.949219 38.9375 26.914062 39.5 L 25 40.523438 L 22.988281 39.4375 C 14.625 34.9375 9.460938 30.375 6.988281 25.3125 C 4.835938 20.914062 4.851562 16.710938 7.023438 13.351562 C 8.273438 11.414062 10.273438 10.085938 12.75 9.550781 C 13.886719 9.3125 16.261719 9.398438 17.5625 9.738281 Z M 23.238281 30.1875 C 23.726562 32.148438 24.125 33.800781 24.125 33.875 C 24.125 33.949219 23.699219 34 23.0625 34 C 22.085938 34 21.960938 33.976562 21.6875 33.6875 L 21.375 33.386719 L 21.375 30.335938 C 21.375 28.101562 21.414062 27.25 21.539062 27.101562 C 21.6875 26.914062 22.113281 26.636719 22.261719 26.625 C 22.3125 26.625 22.75 28.226562 23.238281 30.1875 Z M 28.523438 30 C 28.988281 31.824219 29.398438 33.460938 29.4375 33.648438 L 29.523438 34 L 27.636719 34 L 27.511719 33.523438 C 27 31.613281 25.875 26.976562 25.875 26.8125 C 25.875 26.648438 26.023438 26.625 26.789062 26.648438 L 27.6875 26.6875 Z M 33.875 30 C 34.335938 31.824219 34.75 33.476562 34.800781 33.664062 L 34.886719 34.011719 L 33.914062 33.976562 L 32.949219 33.9375 L 32.125 30.625 C 31.664062 28.800781 31.25 27.148438 31.199219 26.960938 L 31.113281 26.613281 L 32.085938 26.648438 L 33.050781 26.6875 Z M 44.113281 26.8125 C 44.3125 26.914062 44.5 27.085938 44.550781 27.1875 C 44.585938 27.300781 44.625 28.738281 44.625 30.386719 L 44.625 33.386719 L 44.3125 33.6875 L 44.011719 34 L 38.3125 34 L 37.449219 30.523438 C 36.976562 28.625 36.5625 26.960938 36.523438 26.835938 C 36.476562 26.636719 36.710938 26.625 40.113281 26.625 C 43.074219 26.625 43.824219 26.664062 44.113281 26.8125 Z M 44.113281 26.8125 "/>
    <path style=" stroke:none;fill-rule:nonzero;fill:rgb(0%,0%,0%);fill-opacity:1;" d="M 34.738281 11.664062 C 34.460938 11.851562 34.25 12.136719 34.125 12.476562 C 33.960938 12.9375 33.960938 13.0625 34.125 13.523438 C 34.351562 14.148438 34.960938 14.625 35.5625 14.625 C 36.351562 14.625 37.261719 15 37.875 15.574219 C 38.625 16.273438 39.074219 17.273438 39.289062 18.710938 C 39.488281 20 39.625 20.300781 40.164062 20.625 C 40.925781 21.101562 41.914062 20.851562 42.375 20.085938 C 42.886719 19.25 42.5625 16.960938 41.675781 15.136719 C 41.101562 13.976562 39.75 12.5625 38.738281 12.074219 C 37.175781 11.324219 35.5 11.148438 34.738281 11.664062 Z M 34.738281 11.664062 "/>
</svg>
