<svg
    xmlns="http://www.w3.org/2000/svg"
    width="24px"
    height="24px"
    viewBox="0 0 40 24"
    fill="currentColor"
    fill-rule="evenodd"
    classname="lucide lucide-bar-hidden"
  >
    <path d="M 4.464844 0.140625 C 2.40625 0.601562 0.566406 2.464844 0.140625 4.546875 C 0.0546875 4.929688 0 5.726562 0 6.460938 C 0 7.546875 0.0273438 7.78125 0.195312 8.117188 C 0.546875 8.867188 1.351562 9.167969 2.074219 8.8125 C 2.796875 8.464844 2.90625 8.164062 2.964844 6.46875 C 3.019531 5.136719 3.035156 4.976562 3.257812 4.546875 C 3.546875 3.984375 3.972656 3.570312 4.535156 3.273438 C 4.898438 3.085938 5.128906 3.046875 6.390625 3 C 7.675781 2.960938 7.859375 2.933594 8.167969 2.738281 C 9.140625 2.128906 9.054688 0.703125 8.019531 0.195312 C 7.675781 0.0273438 7.464844 0 6.332031 0.0078125 C 5.621094 0.0078125 4.785156 0.0742188 4.464844 0.140625 Z M 4.464844 0.140625 "/>
    <path d="M 14.167969 0.214844 C 13.722656 0.449219 13.332031 1.050781 13.332031 1.5 C 13.332031 1.949219 13.722656 2.550781 14.167969 2.785156 L 14.566406 3 L 25.433594 3 L 25.832031 2.785156 C 26.277344 2.550781 26.667969 1.949219 26.667969 1.5 C 26.667969 1.050781 26.277344 0.449219 25.832031 0.214844 L 25.433594 0 L 14.566406 0 Z M 14.167969 0.214844 "/>
    <path d="M 31.972656 0.195312 C 31.230469 0.5625 30.945312 1.378906 31.296875 2.101562 C 31.640625 2.832031 31.933594 2.945312 33.609375 3 C 34.925781 3.054688 35.082031 3.074219 35.519531 3.300781 C 36.046875 3.582031 36.472656 4.023438 36.777344 4.621094 C 36.953125 4.960938 36.992188 5.210938 37.035156 6.46875 C 37.074219 7.773438 37.101562 7.960938 37.296875 8.269531 C 37.898438 9.253906 39.304688 9.167969 39.804688 8.117188 C 39.972656 7.78125 40 7.546875 40 6.460938 C 40 4.191406 39.582031 3.046875 38.285156 1.726562 C 37.027344 0.429688 35.859375 0 33.609375 0 C 32.527344 0 32.304688 0.0273438 31.972656 0.195312 Z M 31.972656 0.195312 "/>
    <path d="M 0.832031 15.214844 C 0.554688 15.367188 0.359375 15.5625 0.214844 15.84375 C 0.0195312 16.210938 0 16.367188 0 17.523438 C 0 19.058594 0.148438 19.835938 0.621094 20.804688 C 1.035156 21.648438 2.082031 22.773438 2.871094 23.222656 C 3.871094 23.792969 4.433594 23.925781 6.082031 23.980469 C 7.480469 24.019531 7.601562 24.007812 8 23.820312 C 8.757812 23.445312 9.066406 22.640625 8.703125 21.898438 C 8.359375 21.167969 8.066406 21.054688 6.390625 21 C 5.074219 20.945312 4.917969 20.925781 4.480469 20.699219 C 3.953125 20.417969 3.527344 19.976562 3.222656 19.378906 C 3.046875 19.039062 3.007812 18.789062 2.964844 17.53125 C 2.90625 15.84375 2.796875 15.535156 2.09375 15.195312 C 1.59375 14.945312 1.324219 14.953125 0.832031 15.214844 Z M 0.832031 15.214844 "/>
    <path d="M 37.890625 15.195312 C 37.628906 15.328125 37.417969 15.535156 37.269531 15.796875 C 37.054688 16.164062 37.035156 16.273438 37.035156 17.417969 C 37.035156 18.421875 37 18.742188 36.851562 19.152344 C 36.609375 19.808594 36.15625 20.324219 35.546875 20.671875 C 35.066406 20.933594 34.980469 20.953125 33.609375 21 C 32.324219 21.039062 32.140625 21.066406 31.832031 21.261719 C 30.851562 21.882812 30.945312 23.296875 32 23.820312 C 32.398438 24.007812 32.519531 24.019531 33.917969 23.980469 C 35.140625 23.945312 35.527344 23.898438 36.019531 23.726562 C 37.933594 23.0625 39.464844 21.367188 39.859375 19.453125 C 39.945312 19.058594 40 18.273438 40 17.492188 C 40 16.273438 39.980469 16.164062 39.769531 15.789062 C 39.621094 15.523438 39.40625 15.328125 39.140625 15.195312 C 38.628906 14.953125 38.390625 14.953125 37.890625 15.195312 Z M 37.890625 15.195312 "/>
    <path d="M 14.167969 21.214844 C 13.722656 21.449219 13.332031 22.050781 13.332031 22.5 C 13.332031 22.949219 13.722656 23.550781 14.167969 23.785156 L 14.566406 24 L 25.433594 24 L 25.832031 23.785156 C 26.277344 23.550781 26.667969 22.949219 26.667969 22.5 C 26.667969 22.050781 26.277344 21.449219 25.832031 21.214844 L 25.433594 21 L 14.566406 21 Z M 14.167969 21.214844 "/>
  </svg>