<svg
    xmlns="http://www.w3.org/2000/svg"
    width="24px"
    height="24px"
    viewBox="0 0 40 24"
    fill="currentColor"
    fill-rule="evenodd"
    classname="lucide lucide-bar-no-value"
  >
    <path d="M 4.65625 0.101562 C 2.722656 0.429688 0.992188 1.976562 0.257812 4.03125 L 0.046875 4.640625 L 0.046875 19.265625 L 0.304688 20.015625 C 0.917969 21.835938 2.25 23.136719 4.167969 23.785156 C 4.648438 23.945312 5.390625 23.953125 20 23.953125 L 35.324219 23.953125 L 35.972656 23.738281 C 36.945312 23.410156 37.566406 23.007812 38.332031 22.226562 C 38.832031 21.710938 39.128906 21.320312 39.378906 20.804688 C 40.019531 19.5 40.007812 19.554688 39.980469 11.679688 L 39.953125 4.640625 L 39.730469 4.03125 C 39.378906 3.039062 38.992188 2.4375 38.25 1.6875 C 37.742188 1.179688 37.351562 0.882812 36.84375 0.628906 C 35.507812 -0.0390625 36.480469 0 20 0.0078125 C 11.824219 0.0195312 4.917969 0.0546875 4.65625 0.101562 Z M 35.519531 3.300781 C 36.101562 3.609375 36.59375 4.152344 36.816406 4.742188 C 36.980469 5.175781 36.992188 5.558594 36.992188 12.09375 L 36.992188 18.984375 L 36.777344 19.378906 C 36.464844 19.976562 36.035156 20.417969 35.519531 20.699219 L 35.046875 20.953125 L 4.953125 20.953125 L 4.535156 20.726562 C 3.972656 20.429688 3.546875 20.015625 3.257812 19.453125 L 3.007812 18.984375 L 3.007812 5.015625 L 3.257812 4.546875 C 3.574219 3.9375 4 3.535156 4.628906 3.242188 L 5.140625 3 L 20.09375 3.027344 L 35.046875 3.046875 Z M 35.519531 3.300781 "/>
    <path d="M 6.109375 5.304688 C 5.695312 5.492188 5.398438 5.773438 5.175781 6.207031 C 5.007812 6.535156 5 6.824219 5 11.972656 C 5 17.023438 5.019531 17.417969 5.175781 17.765625 C 5.378906 18.226562 5.816406 18.617188 6.277344 18.75 C 6.507812 18.824219 8.859375 18.84375 13.804688 18.824219 L 20.980469 18.796875 L 21.378906 18.535156 C 21.65625 18.347656 21.84375 18.121094 22 17.765625 L 22.230469 17.269531 L 22.175781 6.394531 L 21.898438 5.992188 C 21.75 5.773438 21.433594 5.492188 21.214844 5.371094 L 20.804688 5.15625 L 13.621094 5.15625 C 7.417969 5.164062 6.390625 5.183594 6.109375 5.304688 Z M 6.109375 5.304688 "/>
  </svg>